<?xml version="1.0" standalone="no"?>
<!DOCTYPE svg PUBLIC "-//W3C//DTD SVG 20010904//EN"
 "http://www.w3.org/TR/2001/REC-SVG-20010904/DTD/svg10.dtd">
<svg version="1.0" xmlns="http://www.w3.org/2000/svg"
 width="511.881855pt" height="511.940643pt" viewBox="0 0 511.881855 511.940643"
 preserveAspectRatio="xMidYMid meet">
<metadata>
Created by potrace 1.12, written by Peter Selinger 2001-2015
</metadata>
<g transform="translate(-0.107912,511.961924) scale(0.100000,-0.100000)"
fill="#000000" stroke="none">
<path d="M2492 5100 c-18 -11 -41 -34 -52 -52 -19 -31 -20 -51 -20 -319 0
-281 0 -287 23 -320 60 -90 181 -88 238 4 18 30 19 48 17 329 l-3 296 -25 27
c-53 57 -120 70 -178 35z"/>
<path d="M4236 4415 c-29 -10 -91 -65 -223 -197 -212 -211 -236 -241 -235
-297 1 -84 59 -141 144 -141 60 0 90 24 315 251 186 190 203 215 183 290 -10
37 -68 99 -93 99 -7 0 -21 2 -32 5 -11 3 -38 -2 -59 -10z"/>
<path d="M803 4381 c-73 -34 -100 -130 -55 -202 11 -19 101 -114 200 -211 188
-186 213 -202 280 -187 98 22 145 128 93 212 -35 56 -363 375 -403 392 -48 19
-64 19 -115 -4z"/>
<path d="M2485 4123 c-674 -29 -1273 -517 -1440 -1173 -62 -244 -62 -536 0
-780 138 -543 582 -987 1125 -1125 244 -62 536 -62 780 0 416 106 783 395 992
782 80 148 142 339 168 516 15 101 15 333 0 434 -50 341 -203 646 -445 888
-314 313 -734 476 -1180 458z m264 -299 c180 -26 363 -97 526 -202 99 -65 280
-248 349 -354 141 -218 210 -450 210 -708 0 -559 -345 -1038 -877 -1215 -100
-33 -274 -65 -356 -65 l-41 0 0 1280 0 1280 41 0 c23 0 89 -7 148 -16z"/>
<path d="M72 2680 c-87 -53 -95 -157 -17 -230 l27 -25 296 -3 c281 -2 299 -1
329 17 92 57 94 178 4 238 -33 23 -39 23 -320 23 -268 0 -288 -1 -319 -20z"/>
<path d="M4410 2678 c-91 -61 -89 -182 3 -239 30 -18 48 -19 329 -17 l296 3
27 25 c15 14 33 37 41 52 28 54 13 118 -41 168 l-27 25 -297 3 c-296 3 -297 3
-331 -20z"/>
<path d="M1125 1311 c-51 -23 -401 -378 -411 -416 -22 -89 36 -174 124 -183
40 -3 58 0 84 16 18 11 115 103 214 204 191 193 203 211 190 283 -8 43 -41 84
-82 101 -44 18 -71 17 -119 -5z"/>
<path d="M3874 1316 c-39 -17 -72 -59 -80 -102 -13 -71 13 -108 215 -307 112
-111 200 -189 216 -193 111 -28 208 71 181 183 -9 34 -365 395 -412 418 -39
18 -79 19 -120 1z"/>
<path d="M2500 763 c-19 -10 -45 -34 -58 -53 -23 -34 -23 -35 -20 -331 l3
-297 25 -27 c68 -73 152 -73 220 0 l25 27 3 296 c2 281 1 299 -17 329 -40 65
-118 89 -181 56z"/>
</g>
</svg>
