<?xml version="1.0" standalone="no"?>
<!DOCTYPE svg PUBLIC "-//W3C//DTD SVG 20010904//EN"
 "http://www.w3.org/TR/2001/REC-SVG-20010904/DTD/svg10.dtd">
<svg version="1.0" xmlns="http://www.w3.org/2000/svg"
 width="512.000000pt" height="512.000000pt" viewBox="0 0 512.000000 512.000000"
 preserveAspectRatio="xMidYMid meet">
<metadata>
Created by potrace 1.12, written by Peter Selinger 2001-2015
</metadata>
<g transform="translate(0.000000,512.000000) scale(0.100000,-0.100000)"
fill="#000000" stroke="none">
<path d="M1780 4565 l0 -555 -335 0 -335 0 0 165 0 165 -165 0 -165 0 0 165 0
165 -165 0 -165 0 0 -165 0 -165 165 0 165 0 0 -165 0 -165 165 0 165 0 0
-335 0 -335 -555 0 -555 0 0 -165 0 -165 387 -2 388 -3 0 -445 0 -445 -387 -3
-388 -2 0 -165 0 -165 555 0 555 0 0 -335 0 -335 -165 0 -165 0 0 -165 0 -165
-165 0 -165 0 0 -165 0 -165 165 0 165 0 0 165 0 165 165 0 165 0 0 165 0 165
335 0 335 0 0 -555 0 -555 165 0 165 0 2 387 3 388 445 0 445 0 3 -388 2 -387
165 0 165 0 0 555 0 555 335 0 335 0 0 -165 0 -165 165 0 165 0 0 -165 0 -165
165 0 165 0 0 165 0 165 -165 0 -165 0 0 165 0 165 -165 0 -165 0 0 335 0 335
555 0 555 0 0 165 0 165 -387 2 -388 3 0 445 0 445 388 3 387 2 0 165 0 165
-555 0 -555 0 0 335 0 335 165 0 165 0 0 165 0 165 165 0 165 0 0 165 0 165
-165 0 -165 0 0 -165 0 -165 -165 0 -165 0 0 -165 0 -165 -335 0 -335 0 0 555
0 555 -165 0 -165 0 -2 -387 -3 -388 -445 0 -445 0 -3 388 -2 387 -165 0 -165
0 0 -555z m1560 -725 l0 -170 165 0 165 0 0 -165 0 -165 170 0 170 0 0 -780 0
-780 -170 0 -170 0 0 -165 0 -165 -165 0 -165 0 0 -170 0 -170 -780 0 -780 0
0 170 0 170 -165 0 -165 0 0 165 0 165 -170 0 -170 0 0 780 0 780 170 0 170 0
0 165 0 165 165 0 165 0 0 170 0 170 780 0 780 0 0 -170z"/>
</g>
</svg>
