<?xml version="1.0" standalone="no"?>
<!DOCTYPE svg PUBLIC "-//W3C//DTD SVG 20010904//EN"
 "http://www.w3.org/TR/2001/REC-SVG-20010904/DTD/svg10.dtd">
<svg version="1.0" xmlns="http://www.w3.org/2000/svg"
 width="392.008473pt" height="358.000000pt" viewBox="0 0 392.008473 358.000000"
 preserveAspectRatio="xMidYMid meet">
<metadata>
Created by potrace 1.12, written by Peter Selinger 2001-2015
</metadata>
<g transform="translate(-60.000000,435.000000) scale(0.100000,-0.100000)"
fill="#000000" stroke="none">
<path d="M930 4190 l0 -160 -165 0 -165 0 0 -1470 0 -1470 165 0 165 0 0 -160
0 -160 1630 0 1630 0 0 160 0 160 165 0 165 0 -2 1143 -3 1142 -162 3 -163 2
0 160 0 160 -815 0 -815 0 0 165 0 165 -165 0 -165 0 0 160 0 160 -650 0 -650
0 0 -160z m1300 -485 l0 -325 980 0 980 0 0 -1145 0 -1145 -1630 0 -1630 0 0
1470 0 1470 650 0 650 0 0 -325z"/>
<path d="M1250 2560 l0 -160 1310 0 1310 0 0 160 0 160 -1310 0 -1310 0 0
-160z"/>
<path d="M1252 1908 l3 -163 815 0 815 0 3 163 2 162 -820 0 -820 0 2 -162z"/>
</g>
</svg>
