<svg id="Слой_1" data-name="Слой 1" xmlns="http://www.w3.org/2000/svg" viewBox="0 0 173.71 13.45"><defs><style>.cls-1{fill:#fff;}</style></defs><polygon class="cls-1" points="28.04 4.34 25.76 4.34 25.76 6.16 28.04 6.16 28.04 5.71 28.49 5.71 28.49 4.8 28.04 4.8 28.04 4.34"/><polygon class="cls-1" points="155.8 7.07 153.53 7.07 153.53 8.89 155.8 8.89 155.8 8.44 156.26 8.44 156.26 7.53 155.8 7.53 155.8 7.07"/><polygon class="cls-1" points="141.15 4.34 139.32 4.34 139.32 4.8 138.87 4.8 138.87 8.44 139.32 8.44 139.32 8.89 141.15 8.89 141.15 8.44 141.6 8.44 141.6 4.8 141.15 4.8 141.15 4.34"/><polygon class="cls-1" points="95.36 7.07 93.08 7.07 93.08 8.89 95.36 8.89 95.36 8.44 95.81 8.44 95.81 7.53 95.36 7.53 95.36 7.07"/><polygon class="cls-1" points="95.36 4.34 93.08 4.34 93.08 6.16 95.36 6.16 95.36 5.71 95.81 5.71 95.81 4.8 95.36 4.8 95.36 4.34"/><polygon class="cls-1" points="124.67 7.07 122.39 7.07 122.39 8.89 124.67 8.89 124.67 8.44 125.12 8.44 125.12 7.53 124.67 7.53 124.67 7.07"/><polygon class="cls-1" points="44.06 7.07 41.78 7.07 41.78 8.89 44.06 8.89 44.06 8.44 44.52 8.44 44.52 7.53 44.06 7.53 44.06 7.07"/><polygon class="cls-1" points="170.46 4.34 168.18 4.34 168.18 6.16 170.46 6.16 170.46 5.71 170.91 5.71 170.91 4.8 170.46 4.8 170.46 4.34"/><polygon class="cls-1" points="13.38 7.07 11.11 7.07 11.11 8.89 13.38 8.89 13.38 8.44 13.84 8.44 13.84 7.53 13.38 7.53 13.38 7.07"/><polygon class="cls-1" points="163.13 4.34 161.31 4.34 161.31 4.8 160.85 4.8 160.85 8.44 161.31 8.44 161.31 8.89 163.13 8.89 163.13 8.44 163.59 8.44 163.59 4.8 163.13 4.8 163.13 4.34"/><path class="cls-1" d="M-403,220.27v13.44h173.71V220.27Zm131.54,2.06h.91v.46h.91v-.46h.91v.46h-.45v.45h-.46v.46h-.91v-.46H-271v-.45h-.46Zm-124.12,3.19h-.91v-.46H-397v-.45h-1.82v.45h-.46v3.64h.46v.46H-397v-.45h.45v-.45h.91v.91h-.45v.45h-.46v.45h-2.73v-.46h-.46v-.45h-.45v-4.55h.45v-.46h.46v-.45h2.73v.45h.46v.46h.45Zm7.33.91h-.46v.91h.46v1.82h-.46v.45h-.45v.46h-3.64V223.7h3.64v.45h.45v.46h.46Zm7.33-1.82h-3.64v1.82h2.73v.91h-2.73v1.82H-381v.91h-4.55V223.7H-381Zm7.33,1.82h-.46v.45h-.45v.46h-2.74v2.73h-.91V223.7h3.65v.45h.45v.46h.46Zm7.33-.91h-.46V226h-.46v.46h-.45v.91h.45v.45h.46v.46h.46v1.82h-.92V228.7h-.45v-.45h-.46v-.46H-369v.46h-.45v.45H-370v1.37h-.91v-1.82h.46v-.46h.45v-.45h.46v-.91H-370V226h-.45v-.45h-.46V223.7h.91v1.36h.46v.46h.45V226h.91v-.45h.46v-.46h.45V223.7h.92Zm8.69,3.64h-.46v.45h-.45v.46h-3.64v-5.46h-1.37v-.91h2.28v2.73h2.73v.45h.45v.46h.46Zm7.32-4.55h-3.64v1.82h2.73v.91h-2.73v1.82h3.64v.91h-4.55V223.7h4.55Zm7.33.91h-.91v-.46h-.45v-.45h-1.83v.45h-.45v3.64h.45v.46h1.83v-.45h.45v-.45h.91v.91h-.45v.45h-.46v.45h-2.73v-.46h-.46v-.45h-.45v-4.55h.45v-.46h.46v-.45h2.73v.45h.46v.46h.45Zm7.33-.91h-1.82v5.46h-.91v-5.46h-1.82v-.91h4.55Zm7.33,0h-3.64v1.82h2.73v.91h-2.73v1.82h3.64v.91h-4.56V223.7h4.56Zm7.33.91h-.91v-.46h-.46v-.45h-1.82v.45h-.46v3.64h.46v.46h1.82v-.45h.46v-.45h.91v.91h-.46v.45h-.45v.45h-2.74v-.46h-.45v-.45h-.46v-4.55h.46v-.46h.45v-.45h2.74v.45h.45v.46h.46Zm7.32-.91h-1.82v5.46h-.91v-5.46h-1.82v-.91h4.55Zm7.33,1.82h-.45v.91h.45v1.82h-.45v.45h-.46v.46h-3.64V223.7h3.64v.45h.46v.46h.45Zm7.33-1.82h-3.64v1.82h2.73v.91h-2.73v1.82H-299v.91h-4.55V223.7H-299Zm7.33,5.46h-.91v-2.73h-2.73v2.73h-.91V223.7h.91v2.73h2.73V223.7h.91Zm7.33,0h-.91v-2.73H-288v2.73h-.92V223.7h.92v2.73h2.73V223.7h.91Zm7.33-.91h-.46v.45h-.45v.46h-3.65V223.7h.91v2.73h2.74v.45h.45v.46h.46Zm1.82.91h-.91V223.7h.91Zm7.33,0h-.92v-3.64h-.45v.45h-.46v.46h-.45v.45h-.46v.46H-271v.45h-.46v1.37h-.91V223.7h.91v3.64h.46v-.46h.45v-.45h.46V226h.45v-.45h.46v-.46h.45V223.7h.92Zm7.32-.91H-261v.46h-.46v.45h-2.73v-.46h-.45v-.45h-.46v-4.55h.46v-.46h.45v-.45h2.73v.45h.46v.46h.45Zm7.33-4.55H-255v5.46h-.91v-5.46h-1.82v-.91h4.55Zm7.33,4.55h-.46v.45h-.45v.46h-3.64V223.7h4.09v.91h-3.18v1.82h2.73v.45h.45v.46h.46Zm7.33,0H-239v.46h-.46v.45h-2.73v-.46h-.46v-.45h-.45v-4.55h.45v-.46h.46v-.45h2.73v.45h.45v.46h.46Zm7.33-2.73h-.46v.45h-.45v.46h-2.74v2.73h-.91V223.7h3.65v.45h.45v.46h.46Z" transform="translate(403.05 -220.27)"/><polygon class="cls-1" points="13.38 4.34 11.11 4.34 11.11 6.16 13.38 6.16 13.38 5.71 13.84 5.71 13.84 4.8 13.38 4.8 13.38 4.34"/></svg>