<?xml version="1.0" standalone="no"?>
<!DOCTYPE svg PUBLIC "-//W3C//DTD SVG 20010904//EN"
 "http://www.w3.org/TR/2001/REC-SVG-20010904/DTD/svg10.dtd">
<svg version="1.0" xmlns="http://www.w3.org/2000/svg"
 width="512.000000pt" height="512.000000pt" viewBox="0 0 512.000000 512.000000"
 preserveAspectRatio="xMidYMid meet">
<metadata>
Created by potrace 1.12, written by Peter Selinger 2001-2015
</metadata>
<g transform="translate(0.000000,512.000000) scale(0.100000,-0.100000)"
fill="#000000" stroke="none">
<path d="M3010 4970 l0 -150 -150 0 -150 0 0 -150 0 -150 -150 0 -150 0 0
-150 0 -150 -150 0 -150 0 0 -455 0 -455 150 0 150 0 0 -150 0 -150 -450 0
-450 0 0 -150 0 -150 -155 0 -155 0 0 -150 0 -150 -150 0 -150 0 0 -150 0
-150 -150 0 -150 0 0 -300 0 -300 -150 0 -151 0 3 -152 3 -153 147 -3 148 -3
0 156 0 155 150 0 150 0 0 300 0 300 150 0 150 0 0 150 0 150 155 0 155 0 0
150 0 150 450 0 450 0 0 150 0 150 150 0 150 0 0 -150 0 -150 150 0 150 0 0
-150 0 -150 -150 0 -150 0 0 -150 0 -150 150 0 150 0 0 -300 0 -300 -150 0
-150 0 0 -155 0 -155 150 0 150 0 0 155 0 155 150 0 150 0 0 300 0 300 -150 0
-150 0 0 150 0 150 455 0 455 0 0 -150 0 -150 150 0 150 0 0 -300 0 -300 150
0 150 0 0 -155 0 -156 148 3 147 3 3 153 3 152 -151 0 -150 0 0 300 0 300
-150 0 -150 0 0 150 0 150 150 0 150 0 0 150 0 150 150 0 150 0 0 150 0 150
150 0 150 0 0 300 0 300 -150 0 -149 0 -3 153 -3 152 -147 3 -148 3 0 -156 0
-155 -150 0 -150 0 0 -150 0 -150 -305 0 -305 0 0 150 0 150 -150 0 -150 0 0
305 0 305 150 0 150 0 0 150 0 150 155 0 156 0 -3 148 -3 147 -152 3 -153 3 0
149 0 150 -300 0 -300 0 0 -150z m600 -300 l0 -150 -150 0 -150 0 0 -150 0
-150 -150 0 -150 0 2 -302 3 -303 147 -3 147 -3 3 -147 3 -147 147 -3 147 -3
3 -147 3 -147 303 -3 302 -2 0 150 0 150 150 0 150 0 0 150 0 150 150 0 150 0
0 -300 0 -300 -150 0 -150 0 0 -150 0 -150 -150 0 -150 0 0 -150 0 -150 -150
0 -150 0 0 150 0 150 -455 0 -455 0 0 150 0 150 -150 0 -150 0 0 150 0 150
-150 0 -150 0 0 455 0 455 150 0 150 0 0 150 0 150 150 0 150 0 0 150 0 150
300 0 300 0 0 -150z"/>
<path d="M0 900 l0 -300 150 0 150 0 0 -150 0 -150 150 0 150 0 0 -150 0 -150
1960 0 1960 0 0 150 0 150 150 0 150 0 0 150 0 150 150 0 150 0 0 300 0 300
-150 0 -150 0 0 -300 0 -300 -150 0 -150 0 0 -150 0 -150 -1960 0 -1960 0 0
150 0 150 -150 0 -150 0 0 300 0 300 -150 0 -150 0 0 -300z"/>
</g>
</svg>
