<?xml version="1.0" standalone="no"?>
<!DOCTYPE svg PUBLIC "-//W3C//DTD SVG 20010904//EN"
 "http://www.w3.org/TR/2001/REC-SVG-20010904/DTD/svg10.dtd">
<svg version="1.0" xmlns="http://www.w3.org/2000/svg"
 width="461.000000pt" height="461.000000pt" viewBox="0 0 461.000000 461.000000"
 preserveAspectRatio="xMidYMid meet">
<metadata>
Created by potrace 1.12, written by Peter Selinger 2001-2015
</metadata>
<g transform="translate(-26.000000,486.000000) scale(0.100000,-0.100000)"
fill="#000000" stroke="none">
<path d="M1290 4605 l0 -255 -260 0 -260 0 0 -255 0 -255 -255 0 -255 0 0
-770 0 -770 255 0 255 0 0 -255 0 -255 260 0 260 0 0 -255 0 -255 765 0 765 0
0 255 0 255 255 0 255 0 0 -255 0 -255 258 -2 257 -3 3 -252 2 -253 255 0 255
0 0 -260 0 -260 255 0 255 0 0 260 0 260 -255 0 -255 0 0 255 0 255 -255 0
-255 0 0 255 0 255 -260 0 -260 0 0 255 0 255 -255 0 -255 0 0 -255 0 -255
-765 0 -765 0 0 255 0 255 -260 0 -260 0 0 770 0 770 260 0 260 0 0 255 0 255
765 0 765 0 0 -255 0 -255 -255 0 -255 0 0 -255 0 -255 255 0 255 0 0 255 0
255 255 0 255 0 2 -767 3 -768 255 0 255 0 3 768 2 767 -260 0 -260 0 0 255 0
255 -255 0 -255 0 0 255 0 255 -765 0 -765 0 0 -255z"/>
</g>
</svg>
